<svg xmlns="http://www.w3.org/2000/svg" viewBox="0 0 245 45" width="245" height="45" fill="#000">
  <path d="M15.15,41.76c-1.38,1.37-3.15,2.06-5.31,2.06C4.26,43.82,0,39.5,0,34.07c0-5.5,4.26-9.91,9.84-9.91a7.65,7.65,0,0,1,5.27,2v-1.8h3.12V43.6H15.15Zm.13-7.8a6.41,6.41,0,0,0-6.25-6.26,6.26,6.26,0,1,0,0,12.52A6.48,6.48,0,0,0,15.28,33.96Z" style="fill: #171d29"></path>
  <path d="M36.88,27.48V24.36H33.75V19.92h-3.2v4.44H28.15v3.12h2.4V37.94c0,3.51,2.93,5.52,6.16,5.66a15.32,15.32,0,0,0,2.86-.21l.19-3.27a10.86,10.86,0,0,1-2.55.26c-1.51,0-3.46-.56-3.46-3.16V27.48Z" style="fill: #171d29"></path>
  <path d="M44.61,43.6V15.25h-3.2V43.6Z" style="fill: #171d29"></path>
  <path d="M52.24,43.6V15.25h-3.2V43.6Z" style="fill: #171d29"></path>
  <path d="M65.58,43.82c-4.25,0-8.39-2.67-8.39-7.23A6.6,6.6,0,0,1,63.46,30a11,11,0,0,1,5.47,1.38c1.7,1,2.87,2.36,2.87,4.31,0,.42-.07,1.23-.07,1.65H60.24c.36,3.09,3.16,3.62,5.34,3.62a10.33,10.33,0,0,0,4.42-1l1.29,2.47A15.72,15.72,0,0,1,65.58,43.82Zm.28-10.39A3,3,0,0,0,63,33a3.48,3.48,0,0,0-2.7,1.38,3.4,3.4,0,0,0-.46,1.74H68.9a2.79,2.79,0,0,0-.46-1.66A3.39,3.39,0,0,0,65.86,33.43Z" style="fill: #171d29"></path>
  <path d="M95.5,43.6V33.16c0-3.23-2.18-5.46-5.22-5.46a6,6,0,0,0-4.37,2.12V43.6H82.71V24.36h3.2v1.88a8.06,8.06,0,0,1,5.8-2.1c4.69,0,7,3.37,7,7.87V43.6Z" style="fill: #171d29"></path>
  <path d="M113.41,41.76c-1.37,1.37-3.15,2.06-5.31,2.06-5.58,0-9.84-4.32-9.84-9.75,0-5.5,4.26-9.91,9.84-9.91a7.66,7.66,0,0,1,5.28,2v-1.8h3.12V43.6h-3.09Zm.13-7.8a6.42,6.42,0,0,0-6.26-6.26,6.26,6.26,0,1,0,0,12.52A6.49,6.49,0,0,0,113.54,33.96Z" style="fill: #171d29"></path>
  <path d="M127.68,43.6V15.25h-3.2V43.6Z" style="fill: #171d29"></path>
  <path d="M141.38,27.48V24.36h-3.12V19.92h-3.2v4.44h-2.4v3.12h2.4V37.94c0,3.51,2.93,5.52,6.16,5.66a15.32,15.32,0,0,0,2.86-.21l.19-3.27a10.78,10.78,0,0,1-2.55.26c-1.52,0-3.46-.56-3.46-3.16V27.48Z" style="fill: #171d29"></path>
  <path d="M153.56,43.82c-4.21,0-8.22-2.74-8.22-7.12a6.81,6.81,0,0,1,4.76-6.56,5.07,5.07,0,0,1-2.74-4.36c0-3,2.44-5.39,6.2-5.39a5.45,5.45,0,0,1,5.83,5.39,5.34,5.34,0,0,1-2.74,4.36,7,7,0,0,1,4.77,6.56C161.42,41.08,157.73,43.82,153.56,43.82Zm0-10.59A4.15,4.15,0,0,0,149.28,37c0,2.43,2.52,3.87,4.28,3.87,1.95,0,4.31-1.44,4.31-3.87A4.13,4.13,0,0,0,153.56,33.23Zm0-10c-1.51,0-3,1-3,2.8a3,3,0,0,0,3,2.81,3,3,0,0,0,3-2.81C156.56,24.23,155.07,23.2,153.56,23.2Z" style="fill: #171d29"></path>
  <path d="M175.33,43.82c-4.26,0-8.4-2.67-8.4-7.23A6.59,6.59,0,0,1,173.2,30a11,11,0,0,1,5.48,1.38c1.7,1,2.86,2.36,2.86,4.31,0,.42-.07,1.23-.07,1.65H170c.35,3.09,3.16,3.62,5.34,3.62a10.38,10.38,0,0,0,4.42-1l1.29,2.47A15.72,15.72,0,0,1,175.33,43.82Zm.27-10.39a3,3,0,0,0-2.87-.43,3.49,3.49,0,0,0-2.71,1.38,3.48,3.48,0,0,0-.45,1.74h9.07a2.85,2.85,0,0,0-.47-1.66A3.37,3.37,0,0,0,175.6,33.43Z" style="fill: #171d29"></path>
  <path d="M197.3,43.6V32.9c0-3-1.85-5.2-4.9-5.2a6.1,6.1,0,0,0-4.53,2.26V43.6h-3.2V24.36h3.2v1.83a8.23,8.23,0,0,1,5.55-2,6.79,6.79,0,0,1,7,7V43.6Z" style="fill: #171d29"></path>
  <path d="M205.9,33.92c0,3.55,2.22,6.91,6,6.91a6.82,6.82,0,0,0,5-2.08V35.23h3.2v8.37h-3.2V42.09a8.06,8.06,0,0,1-5.83,2c-5.25,0-8.65-4.11-8.65-10.07,0-5.81,3.4-9.86,8.65-9.86a8.56,8.56,0,0,1,5.83,2.32V23h3.2v.75c0,1.28,0,2.61,0,3.9v3.68h-3.2V27.86a6.78,6.78,0,0,0-5-2.19C208.12,25.67,205.9,30.05,205.9,33.92Z" style="fill: #171d29"></path>
  <path d="M233.1,43.82c-5.57,0-9.9-4.35-9.9-9.75s4.33-9.91,9.9-9.91S243,28.65,243,34.07,238.67,43.82,233.1,43.82Zm0-16.81a6.66,6.66,0,0,0-6.59,7.06,6.6,6.6,0,1,0,13.18,0A6.65,6.65,0,0,0,233.1,27Z" style="fill: #171d29"></path>
  <path d="M245,3.74a2.19,2.19,0,1,1-2.19,2.19,2.2,2.2,0,0,1,2.19-2.19" style="fill: #f57c00"></path>
</svg> 